<svg width="90" height="40" viewBox="0 0 90 40" fill="none" xmlns="http://www.w3.org/2000/svg">
<path d="M76.3667 7.73269C78.9567 6.79878 80.4104 6.71369 82.9999 7.73269V31.5667C80.4085 32.3845 78.9577 32.4433 76.3667 31.5667V7.73269Z" fill="black"/>
<path d="M73.0565 24.879H59.7901C59.9093 25.9412 60.1965 26.7324 60.6517 27.2527C61.2912 28.0005 62.1258 28.3744 63.1554 28.3744C63.8058 28.3744 64.4236 28.2119 65.0088 27.8867C65.3665 27.6808 65.7513 27.3177 66.1631 26.7974C66.9381 25.8185 72.4874 26.0713 72.6825 27.399C71.6854 29.1331 70.4823 30.3796 69.0733 31.1383C67.6643 31.8861 65.6429 32.2601 63.0091 32.2601C60.7222 32.2601 58.923 31.9403 57.6115 31.3009C56.3001 30.6505 55.2108 29.6263 54.3437 28.2281C53.4874 26.8191 53.0593 25.1662 53.0593 23.2695C53.0593 20.5707 53.921 18.3867 55.6443 16.7176C57.3785 15.0484 59.7684 14.2139 62.814 14.2139C65.2852 14.2139 67.2362 14.5878 68.6669 15.3357C70.0975 16.0835 71.1868 17.1674 71.9347 18.5872C72.6825 20.0071 73.0565 21.8551 73.0565 24.1311V24.879ZM66.3257 21.7087C66.1957 20.4298 65.8488 19.5139 65.2852 18.9612C64.7325 18.4084 64.0009 18.132 63.0904 18.132C62.0391 18.132 61.1991 18.5493 60.5704 19.3839C60.1694 19.9041 59.9147 20.6791 59.8063 21.7087H66.3257Z" fill="black"/>
<path d="M30.8621 23.2857C30.8621 20.652 31.7508 18.4843 33.5283 16.7826C35.3059 15.0701 37.7066 14.2139 40.7306 14.2139C44.1881 14.2139 46.8002 15.2164 48.5668 17.2216C49.9867 18.8365 50.6966 20.8254 50.6966 23.1882C50.6966 25.8436 49.8133 28.0222 48.0466 29.7238C46.2908 31.4147 43.8575 32.2601 40.7468 32.2601C37.9722 32.2601 35.7286 31.5556 34.0161 30.1466C31.9134 28.4015 30.8621 26.1146 30.8621 23.2857ZM37.4953 23.2695C37.4953 24.8086 37.8042 25.9466 38.422 26.6836C39.0506 27.4207 39.8364 27.7892 40.7793 27.7892C41.7331 27.7892 42.5135 27.4261 43.1205 26.6999C43.7383 25.9737 44.0472 24.8086 44.0472 23.2045C44.0472 21.7087 43.7383 20.5978 43.1205 19.8716C42.5027 19.1346 41.7386 18.7661 40.8281 18.7661C39.8635 18.7661 39.0669 19.14 38.4382 19.8879C37.8096 20.6249 37.4953 21.7521 37.4953 23.2695Z" fill="black"/>
<path d="M27.7125 31.3622C24.4701 32.2797 22.6727 32.3449 20.0713 31.3622L7 9.78802C10.087 8.01318 11.7633 7.82961 14.5924 9.78802L27.7125 31.3622ZM7 31.3622V11.8365L13.2593 22.0952V31.3622C11.0572 32.269 9.71911 32.3857 7 31.3622ZM27.7125 9.78802V29.3137L21.4532 19.0062V9.78802C24.0301 8.20204 25.3973 8.17726 27.7125 9.78802Z" fill="black"/>
</svg>
